<?xml version="1.0" encoding="UTF-8"?>
<svg id="Laag_1" xmlns="http://www.w3.org/2000/svg" version="1.1" viewBox="0 0 595.2 841.92">
  <!-- Generator: Adobe Illustrator 30.3.0, SVG Export Plug-In . SVG Version: 2.1.3 Build 182)  -->
  <defs>
    <style>
      .st0 {
        fill: #ff864f;
      }

      .st1 {
        fill: #ff98c9;
      }

      .st2 {
        fill: #fffef8;
      }

      .st3 {
        fill: #89a1ca;
      }

      .st4 {
        fill: #ffdd10;
      }
    </style>
  </defs>
  <path class="st0" d="M362.04,231.7l.54-.02,6.82,15.75c1.47,3.25.65,6.83.9,10.23s-1.36,6.5-1.53,9.78c-.29,5.7,7.58,16.86-.22,25.03-1.34,1.4-2.54,1.66-2.4,4.21s.33,6.26-.92,8.87c-2.33,4.86-9.04,6.05-13.45,3.33-.47-.29-1.22-1.82-1.98-1.12-2.85,2.66-6.68,4.12-10.73,3.53-10.04-1.46-12.85-17.61-16.77-25.42l-3.86-7.69c-4.82-9.6-10.57-18.49-16.81-27.18-.79-1.11-1.6-2.09-2.77-2.47l2.35,14.25,1.14,8.9c.45,3.48-.36,7.19-1.14,10.51-.62,2.67-2.7,4.18-5.35,4.43-3.3.32-7.87.89-10.43-1.67-3.02-3.03-3.76-7.63-4.77-11.57l-3.84-14.99c-1.45-5.67-3.76-10.82-6.6-15.9l-10.3-18.42c-1.41-2.51-2.45-4.55-4.46-6.67-7.21-7.58-15.16-14.16-24.93-18.23-11.93-4.97-24.73-6.8-37.3-3.83-26.86,6.33-44.01,28.98-49.88,55.27-2.87,12.84-2.72,25.72-.45,38.68l3.03,13.77,22.85,83.21,13.67,43.03,20.08,52.77,9.9,21.72,4.65,8.88c15.63.88,30.6.5,46.12.04,12.99-.38,25.2-1.98,38.01-3.87,13.77-2.03,26.81-5.09,40.13-8.82,12.33-3.46,31.78-12.23,41.69-19.8l11.47-8.76c2.53-1.93,5.4-4.41,7.1-7.18,6.9-11.2,10.7-23.5,14.52-35.96,2.4-7.85,4.28-15.23,5.34-23.41l1.26-9.77,3.24-23.19,1.29-9.65c1.02-7.59.17-15.08-.59-22.65l-.9-8.92c-1.62-9.54-3.85-26.49.25-33.49,1.07-1.83,2.45-2.8,3.91-3.87,3.55-2.61,8.81-1.64,11.69,1.95,1.28,1.59,2.44,2.99,3.19,4.99l2.48,6.59c1.21,3.21,2.32,6.13,2.95,9.55,1.13,6.16,2.39,12.14,4.54,17.98.56,1.53,2.3,2.27,3.62,2.36,1.08.07,2.84-.71,3.41-1.96,2.7-5.87,2.26-12.12.92-18.32-1.43-6.62-3.31-12.63-5.58-19.02-1.42-4-2.93-8.02-6.67-10.65-4.58-3.23-8.61-6.84-12.23-11.22-1.29-1.56-2.38-2.64-3.18-4.63-1.45-3.59-2.42-7.67-.38-11.39,1.64-2.99,5.61-5.04,8.96-5.47-2.65-3.31-4.58-9.05-3.1-12.12.41-.37.61-.11.78-.02,5.44,3.13,10.58,6.32,15.51,10.24,4.61,3.67,8.98,7.15,12.83,11.65l8.15,9.53,7.09,10.67,2.39,4.35,5.8,12.51,1.05,3.77c2.07,5.26,3.45,10.46,4.22,16l.71,5.1c.66,4.75,1.2,9.19.91,13.95l-.94,15.37-.84,5.41-1.19,5.11c-.63,2.7-.9,5.42-2.24,7.97l-.82,3.48-4.24,11.07-3.29,7.31-2.01,3.85-2.34,4.26c-5.19,8.46-10.49,16.35-16.98,23.82-9.19,10.58-18.76,20.2-29.91,28.63l-12.83,9.7-12.41,8.25-11.39,6.85-4.83,2.79-6.54,3.57-7.77,3.87-16.44,8.04-5.3,1.93-11.51,4.81-8.53,3.47-4.62,1.72-4.61,1.53-5.27,1.89-12.04,4.23-25.08,7.52-13.39,3.48-12.39,3.04-9.71,2.33-28.01,5.75c-2.44.5-4.12-1.79-5.31-3.31l-17.05-21.84-6.24-8.74c-7.2-10.08-14.22-19.9-20.96-30.27l-7.6-11.69-2.77-4.84-2.19-3.58-2.62-4.52-2.18-3.64-2.7-4.49-3.05-5.7-3.36-6.69c-.83-1.65-2.28-3.02-2.73-4.89-.47-1.99-1.94-3.21-2.72-4.88l-8.34-17.72-1.47-4.32-3.64-8.82-2.66-6.46c-4.64-12.61-9.11-24.98-11.62-38.23l-4.41-23.32-1.12-12.36-.62-18.73c.37-17.77,4.06-38.56,11.23-54.51l3.44-7.66c4.35-8.21,9.11-16.11,15.36-22.97l5.73-6.29,8.81-7.9,10.04-7.27,6.38-3.82,12.7-5.87c24.08-9.29,49.44-10.22,74.09-2.65,3.5,1.07,6.91,2.28,10.14,3.75l6.99,3.18,4.42,2.31,3.4,1.9,4.64,3.03c23.1,15.09,38.44,36.81,41.84,64.92,5.39-5.17,10.65-8.82,16.61-12.32l11.01-5.19,8.03-2.67Z"/>
  <path class="st1" d="M362.04,231.7l-8.03,2.67-11.01,5.19c-5.96,3.5-11.22,7.16-16.61,12.32-3.4-28.11-18.75-49.83-41.84-64.92l-4.64-3.03-3.4-1.9-4.42-2.31-6.99-3.18c-3.23-1.47-6.64-2.67-10.14-3.75-24.65-7.57-50.01-6.65-74.09,2.65l-12.7,5.87-6.38,3.82-10.04,7.27-8.81,7.9-5.73,6.29c-6.25,6.87-11.01,14.77-15.36,22.97l-3.44,7.66c-7.17,15.94-10.85,36.74-11.23,54.51l.62,18.73,1.12,12.36,4.41,23.32c2.51,13.25,6.98,25.62,11.62,38.23l2.66,6.46,3.64,8.82,1.47,4.32,8.34,17.72c.79,1.67,2.25,2.89,2.72,4.88.45,1.87,1.9,3.24,2.73,4.89l3.36,6.69,3.05,5.7,2.7,4.49,2.18,3.64,2.62,4.52,2.19,3.58,2.77,4.84,7.6,11.69c6.74,10.37,13.76,20.19,20.96,30.27l6.24,8.74,17.05,21.84c1.18,1.52,2.87,3.81,5.31,3.31l28.01-5.75,9.71-2.33,12.39-3.04,13.39-3.48,25.08-7.52,12.04-4.23,5.27-1.89,4.61-1.53,4.62-1.72,8.53-3.47,11.51-4.81,5.3-1.93,16.44-8.04,7.77-3.87,6.54-3.57,4.83-2.79,11.39-6.85,12.41-8.25,12.83-9.7c11.16-8.43,20.73-18.05,29.91-28.63,6.49-7.47,11.78-15.37,16.98-23.82l2.34-4.26,2.01-3.85,3.29-7.31,4.24-11.07.82-3.48c1.33-2.55,1.61-5.27,2.24-7.97l1.19-5.11.84-5.41.94-15.37c.29-4.76-.25-9.21-.91-13.95l-.71-5.1c-.77-5.54-2.16-10.74-4.22-16l-1.05-3.77-5.8-12.51-2.39-4.35-7.09-10.67-8.15-9.53c-3.85-4.5-8.21-7.98-12.83-11.65-4.94-3.93-10.07-7.11-15.51-10.24-.07-1.6,3.8-3.6,5.09-3.69,3.44-.25,6.95-.08,10.33.64l5.54,2.61c5.4-4.91,14.62,2.39,20.43,6.88,2.16-.72,5.05-1.8,7,.24,4.92,5.13,9.02,10.87,12.92,16.78,3.01,4.56,4.71,9.09,6.57,14.18,4.79,13.08,7.54,26.34,8.55,40.34l.77,10.65.63,13.96-.36,10.2c-.3,8.67-1.16,16.81-3.76,25.16-8.19,26.26-25,49.99-43.99,69.75-11.15,11.6-22.98,22.1-35.83,31.74l-19.4,13.76-15.85,9.67c-26.59,16.23-55.19,28.12-85.06,37.25-16.63,4.77-32.99,9.11-50.23,11.16l-51.07,4.74-32.64-47.6-26.7-45.35-21.23-43.07-12.98-32.16-15.31-44.75c-7.01-20.49-8.89-42.55-8.52-64.3.59-35.25,12.73-73.83,38.81-98.04,4.63-4.29,10.05-7.2,15.31-10.64,3.94-2.57,7.87-4.56,12.01-6.69,6.48-3.34,13.08-5.25,20.18-6.8,8.48-1.85,16.54-3.13,25.22-3.5,28.15-1.21,48.69-.41,76.26,6.41l15.73,5.02,17.49,8.76,7.42,4.64c3.76,2.36,7.77,4.53,10.76,7.93,6.8,7.73,12.23,16.13,17.16,25.11,3.47,6.33,6.99,12.2,9.52,18.72Z"/>
  <g>
    <path class="st4" d="M362.58,231.68l9.62-2.24,6.21-.63c5.81-.59,11.44-.89,17.19-.07l14.53,2.07,3.71.86,7.25,2.07,7.29,2.23,3.84,1.93c2.84,1.43,5.9,2.08,8.3,4.11-1.48,3.08.45,8.82,3.1,12.12-3.36.43-7.32,2.48-8.96,5.47-2.04,3.71-1.07,7.79.38,11.39.8,1.99,1.89,3.07,3.18,4.63,3.63,4.38,7.65,7.99,12.23,11.22,3.74,2.63,5.25,6.65,6.67,10.65,2.27,6.39,4.14,12.4,5.58,19.02,1.34,6.21,1.77,12.45-.92,18.32-.57,1.25-2.34,2.03-3.41,1.96-1.33-.09-3.06-.82-3.62-2.36-2.14-5.84-3.41-11.82-4.54-17.98-.63-3.42-1.74-6.34-2.95-9.55l-2.48-6.59c-.75-2-1.91-3.4-3.19-4.99-2.88-3.59-8.14-4.56-11.69-1.95-1.46,1.08-2.85,2.04-3.91,3.87-4.09,7.01-1.87,23.95-.25,33.49l.9,8.92c.76,7.57,1.61,15.06.59,22.65l-1.29,9.65-3.24,23.19-1.26,9.77c-1.06,8.18-2.93,15.56-5.34,23.41-3.82,12.46-7.62,24.76-14.52,35.96-1.7,2.77-4.57,5.25-7.1,7.18l-11.47,8.76c-9.91,7.56-29.36,16.34-41.69,19.8-13.32,3.73-26.37,6.8-40.13,8.82-12.81,1.89-25.02,3.49-38.01,3.87-15.52.45-30.49.83-46.12-.04l-4.65-8.88-9.9-21.72-20.08-52.77-13.67-43.03-22.85-83.21-3.03-13.77c-2.27-12.96-2.41-25.84.45-38.68,5.87-26.28,23.02-48.94,49.88-55.27,12.57-2.96,25.37-1.14,37.3,3.83,9.77,4.07,17.72,10.65,24.93,18.23,2.02,2.12,3.06,4.16,4.46,6.67l10.3,18.42c2.84,5.08,5.15,10.23,6.6,15.9l3.84,14.99c1.01,3.95,1.75,8.54,4.77,11.57,2.56,2.57,7.13,1.99,10.43,1.67,2.65-.26,4.73-1.76,5.35-4.43.78-3.32,1.58-7.03,1.14-10.51l-1.14-8.9-2.35-14.25c1.18.38,1.98,1.37,2.77,2.47,6.24,8.69,11.99,17.57,16.81,27.18l3.86,7.69c3.92,7.81,6.73,23.96,16.77,25.42,4.05.59,7.89-.87,10.73-3.53.76-.7,1.5.82,1.98,1.12,4.4,2.72,11.12,1.53,13.45-3.33,1.25-2.61,1.06-6.22.92-8.87s1.07-2.81,2.4-4.21c7.8-8.17-.07-19.33.22-25.03.17-3.29,1.79-6.25,1.53-9.78s.57-6.98-.9-10.23l-6.82-15.75ZM210.88,306.4c-.07-7.93-5.72-13.6-13.32-14.31l-11.2-.17v29.19s11.03-.09,11.03-.09c7.81-.59,13.56-6.55,13.49-14.62ZM233.14,308.76v-5.01s-11.71,0-11.71,0v-6.82s12.35-.05,12.35-.05v-4.95s-18.42,0-18.42,0l.02,29.25,18.39-.04v-4.9s-12.34,0-12.34,0l.15-7.43,11.55-.05ZM203.81,359.38c-3.18.49-6.27.42-8.79-1.39-2.96-2.13-4.29-5.68-4.03-9.3.23-3.19,1.9-6.63,5.2-8.26s6.86-1.02,10.44.03c.84-1.31,1.23-2.89,1.39-4.55-2.74-1.29-5.65-1.5-8.69-1.4-8.21.29-14.37,6.66-14.44,14.86-.06,7.48,5,13.77,12.43,14.94,4.2.66,8.36.17,12.49-1.26l.07-12.61h-6.07s0,8.93,0,8.93ZM270.38,349.55c0-8.32-6.75-15.07-15.07-15.07s-15.07,6.75-15.07,15.07,6.75,15.07,15.07,15.07,15.07-6.75,15.07-15.07ZM231.62,364.21l6.67-.02-6.85-12.43c3.93-1.95,5.67-5.55,4.97-9.47-.59-3.3-3.52-6.13-7.27-6.89-4.56-.92-9.19-.39-13.77-.45v29.18s6.04.03,6.04.03v-10.96c1.48-.42,2.83-.42,4.21.05l6,10.96ZM292.41,351.65l-.03-4.96-11.59-.02.04-6.81h12.17s-.05-4.94-.05-4.94h-18.27s0,29.26,0,29.26l18.29-.02.08-4.95-12.27-.05-.03-7.47,11.66-.03ZM303.89,334.88h-6.03v29.26h6.03v-29.26ZM316.12,353.77c3.32,0,6.02.16,8.74-.4,4.84-.99,7.82-4.85,7.61-9.54s-3.57-8.59-8.49-8.67l-14.04-.23v29.18s6.04.01,6.04.01l.16-10.36ZM354.1,359.18l-11.46-.05-.02-24.21-6.02.06v29.19s17.52-.06,17.52-.06l-.02-4.93ZM375.43,351.67l-.02-4.98-11.59-.03.03-6.79,12.12-.07c.24-1.71.25-3.17,0-4.86h-18.26s0,29.22,0,29.22l18.29-.02.08-4.95-12.27-.05-.03-7.46,11.64-.02ZM405.56,363.78l-12.73-15.93,10.85-12.78-7.43-.06-9.3,11.76-.18-11.86-6.01.07v29.19s6.02-.03,6.02-.03l.1-9.03c.01-1.07,1.25-1.98,2.04-2.61l9.17,11.64c2.67-.16,5.09.46,7.47-.36ZM203.79,399.01l-6.98-8.65,6.13-6.07-5.64-.03-4.62,5.09-.06-11.98h-4.3s0,21.75,0,21.75h4.29s-.04-3.71-.04-3.71c0-.77.78-2.03,1.33-1.81l4.59,5.52c1.88.07,3.55.23,5.31-.11ZM244.05,398.76c1.19-.19,3.41,1.24,4.86.13l-.03-21.5-4.27-.02-.11,7.58c-2.79-1.49-5.92-1.34-8.34.43-2.09,1.53-3.24,4.22-3.01,7.11.21,2.67,1.79,4.83,3.44,5.9,2.58,1.67,4.77.8,7.46.36ZM359.21,399.08l-.06-9.44c-.01-1.88-.9-4.04-2.59-4.97-2.61-1.44-5.67-.67-7.85,1.26l-.08-8.54-4.3.1.03,21.62h4.26s.09-9.42.09-9.42c.01-1.54,1.93-2.06,3.04-2.15,1.16-.09,2.88.46,2.92,1.91l.23,9.65,4.31-.03ZM209.97,378.41c-.97-.41-1.98-.35-2.74-.04-1.02.41-1.26,1.49-1.01,2.29.29.9,1.13,1.3,2.25,1.31s2.03-.42,2.33-1.28c.24-.71.18-1.85-.82-2.27ZM367.3,378.48c-1.01-.54-2.22-.44-3.05-.03-.88.44-1.12,1.49-.89,2.1.32.86,1.09,1.31,2.1,1.39s1.99-.18,2.45-1c.34-.6.43-1.9-.61-2.46ZM206.29,384.15v15.07h4.4v-15.07h-4.4ZM229.93,399.09l-.07-9.86c-.01-1.85-1.04-3.85-2.76-4.68-2.52-1.22-5.52-.57-7.48,1.31-.1-.57-.32-1.62-.69-1.62l-3.79-.02v14.91s4.23.02,4.23.02l.15-9.93c.02-1.36,2.17-1.63,3.09-1.67,1-.03,2.7.35,2.74,1.73l.26,9.89,4.32-.06ZM255.52,393.01l10.32-.02c.46-2.07.15-4.47-1.19-6.37-1.09-1.54-3.04-2.52-5.27-2.67-4.88-.33-8.54,3.3-8.28,8.15.16,2.98,1.62,5.56,4.51,6.6,3.04,1.09,6.45,1.02,9.3-.48l-.7-3.19c-4.14,1.4-7.98,1.39-8.68-2.02ZM277.9,388.05l.14-4.09c-1.71-.12-2.91.48-4.13,1.46-.23-.67-.7-1.23-1.16-1.23h-3.61s-.03,14.92-.03,14.92l4.34-.08.2-9.41c.03-1.41,3.02-1.79,4.25-1.58ZM289.61,395.33c-2.51,1.21-4.68.41-5.84-1.09-1.27-1.65-.88-4.08.15-5.3,1.46-1.74,3.64-1.64,5.76-1.01.93-.88,1.18-2.35,1-3.44-2.98-.87-5.91-.78-8.33.82-2.64,1.74-3.85,4.68-3.39,7.56s2.52,5.36,5.53,6.19c2.17.6,4.33.4,6.31-.31-.11-1.32-.15-2.68-1.18-3.42ZM304.39,384.76c-2.86-1.31-6.16-1.06-8.61.56-3.07,2.02-4.13,5.63-2.97,9.05,1.04,3.05,4.21,5.07,7.8,5.06,3.89-.02,7.19-2.36,7.98-5.84s-.58-7.17-4.21-8.83ZM326.68,399.02l-.07-14.73c-1.72-.63-3.69.46-4.81.29-2.88-.64-5.55-1.13-8.04.73-2.12,1.58-3.35,4.26-3.07,7.28.25,2.75,1.87,5.09,3.89,6.04,2.56,1.21,5.22,1.14,7.42-.73.39,1.73,1.86,1.34,4.67,1.12ZM340.88,395.24c-2.58,1.31-4.84.5-5.96-.82-1.5-1.78-.98-3.95-.04-5.32,1.3-1.91,3.65-1.76,5.73-1.24.95-.11,1.55-2.75.83-3.31-5.23-1.9-10.72.9-11.45,5.95-.49,3.36,1.09,6.42,4.08,7.97,2.44,1.27,5.22,1.34,7.75.24-.13-1.23-.23-2.33-.94-3.46ZM367.85,384.17h-4.3v15.05h4.3v-15.05ZM386.92,399.08l-.14-10.21c-.04-3.22-2.87-5.27-5.96-4.9-1.76.21-3.06.64-4.25,1.95-.05-.66-.3-1.66-.68-1.69l-3.78-.02v14.91s4.27-.01,4.27-.01l.14-9.94c.02-1.3,2.14-1.64,3.06-1.67,1-.03,2.7.41,2.74,1.76l.26,9.84,4.34-.03ZM392.07,405.55c2.84.81,5.59,1.02,8.24.3,3.32-.9,5.22-3.69,5.21-7.06l-.05-14.55-5.33.13c-2.87-.61-5.49-.72-7.83,1.18-1.89,1.54-2.98,4.08-2.71,6.96s1.77,5.18,4.01,6.22c2.43,1.13,4.99.98,7.35-.69.68,2.31-.66,3.98-2.58,4.47s-3.67.13-5.75-.43c-.48.99-.7,2.07-.56,3.46Z"/>
    <path class="st2" d="M270.38,349.55c0,8.32-6.75,15.07-15.07,15.07s-15.07-6.75-15.07-15.07,6.75-15.07,15.07-15.07,15.07,6.75,15.07,15.07ZM262.53,355.75c2.42-3.82,2.25-8.52.18-12.1-1.49-2.58-4.06-4-6.66-4.19-2.76-.2-5.58.71-7.37,3.12-3,4.05-3.22,9.98.08,14.03,3.53,4.34,10.69,3.99,13.77-.87Z"/>
    <path class="st2" d="M231.62,364.21l-6-10.96c-1.37-.47-2.73-.47-4.2-.05v10.96s-6.06-.03-6.06-.03v-29.18c4.58.06,9.22-.47,13.77.45,3.75.76,6.68,3.6,7.27,6.89.7,3.92-1.04,7.52-4.97,9.47l6.85,12.43-6.67.02ZM227.66,347.68c2.27-.54,3.05-2.38,2.85-4.26-.19-1.72-1.57-3.37-3.58-3.42l-5.5-.13v8.07c2.07.15,4.11.24,6.24-.26Z"/>
    <path class="st2" d="M405.56,363.78c-2.38.82-4.8.19-7.47.36l-9.17-11.64c-.78.63-2.02,1.53-2.04,2.61l-.1,9.03-6.02.03v-29.19s6.01-.07,6.01-.07l.18,11.86,9.3-11.76,7.43.06-10.85,12.78,12.73,15.93Z"/>
    <polygon class="st2" points="233.14 308.76 221.59 308.81 221.44 316.24 233.78 316.24 233.77 321.14 215.38 321.17 215.36 291.93 233.77 291.93 233.78 296.88 221.44 296.93 221.44 303.75 233.15 303.75 233.14 308.76"/>
    <path class="st2" d="M316.12,353.77l-.16,10.36h-6.04s0-29.19,0-29.19l14.04.23c4.92.08,8.29,4.17,8.49,8.67s-2.76,8.54-7.61,9.54c-2.72.56-5.41.41-8.74.4ZM322.32,348.73c2.9-.05,4.29-2.39,4.1-4.81-.17-2.2-1.8-3.94-4.32-3.98l-6.12-.09v9s6.33-.11,6.33-.11Z"/>
    <path class="st2" d="M203.81,359.38v-8.94s6.08.01,6.08.01l-.07,12.61c-4.13,1.43-8.28,1.92-12.49,1.26-7.43-1.17-12.49-7.45-12.43-14.94.07-8.2,6.23-14.57,14.44-14.86,3.04-.11,5.94.11,8.69,1.4-.16,1.66-.55,3.24-1.39,4.55-3.58-1.06-7.21-1.63-10.44-.03s-4.97,5.07-5.2,8.26c-.26,3.62,1.07,7.17,4.03,9.3,2.52,1.81,5.61,1.88,8.79,1.39Z"/>
    <polygon class="st2" points="292.41 351.65 280.76 351.68 280.78 359.15 293.05 359.2 292.97 364.15 274.68 364.17 274.68 334.93 292.95 334.91 293 339.84 280.83 339.85 280.79 346.66 292.38 346.69 292.41 351.65"/>
    <path class="st2" d="M375.43,351.67l-11.64.02.03,7.46,12.27.05-.08,4.95-18.29.02v-29.23s18.26.01,18.26.01c.25,1.69.24,3.15,0,4.86l-12.12.07-.03,6.79,11.59.03.02,4.98Z"/>
    <polygon class="st2" points="354.1 359.18 354.12 364.11 336.6 364.17 336.6 334.97 342.62 334.92 342.64 359.13 354.1 359.18"/>
    <path class="st3" d="M392.07,405.55c-.13-1.39.08-2.47.56-3.46,2.08.57,3.87.92,5.75.43s3.27-2.16,2.58-4.47c-2.36,1.67-4.92,1.81-7.35.69-2.24-1.04-3.75-3.43-4.01-6.22s.82-5.42,2.71-6.96c2.33-1.9,4.96-1.8,7.83-1.18l5.33-.13.05,14.55c.01,3.37-1.89,6.15-5.21,7.06-2.65.72-5.4.5-8.24-.3ZM400.99,393.75c.26-1.57.52-3.7-.06-5.05-.69-1.62-3.9-1.47-5.19-.7-1.56.94-2.13,2.83-1.73,4.77.34,1.65,1.6,2.89,2.95,3.09,1.46.22,3.7-.16,4.02-2.12Z"/>
    <path class="st3" d="M244.05,398.76c-2.7.44-4.88,1.31-7.46-.36-1.65-1.07-3.23-3.23-3.44-5.9-.22-2.89.93-5.58,3.01-7.11,2.42-1.77,5.55-1.93,8.34-.43l.11-7.58,4.27.02.03,21.5c-1.45,1.1-3.67-.32-4.86-.13ZM244.34,394.2c.51-1.72.51-3.92.04-5.52-.42-1.43-3.26-1.38-4.43-.98-1.58.55-2.49,2.06-2.53,3.9s.98,3.34,2.41,4.01c1.29.6,3.97.41,4.5-1.42Z"/>
    <rect class="st2" x="297.86" y="334.88" width="6.03" height="29.26"/>
    <path class="st3" d="M203.79,399.01c-1.76.34-3.43.18-5.31.11l-4.59-5.52c-.55-.23-1.34,1.04-1.33,1.81l.04,3.72h-4.29s0-21.74,0-21.74h4.3s.06,11.96.06,11.96l4.62-5.09,5.64.03-6.13,6.07,6.98,8.65Z"/>
    <path class="st3" d="M359.21,399.08l-4.31.03-.23-9.65c-.03-1.45-1.76-2-2.92-1.91s-3.02.61-3.04,2.15l-.09,9.43h-4.26s-.03-21.63-.03-21.63l4.3-.1.08,8.54c2.18-1.93,5.25-2.7,7.85-1.26,1.69.93,2.58,3.09,2.59,4.97l.06,9.44Z"/>
    <path class="st3" d="M326.68,399.02c-2.81.22-4.29.61-4.67-1.12-2.2,1.88-4.86,1.94-7.42.73-2.02-.95-3.64-3.29-3.89-6.04-.27-3.02.95-5.7,3.07-7.28,2.49-1.86,5.16-1.37,8.04-.73,1.12.17,3.08-.92,4.81-.29l.07,14.73ZM322.09,394.03c.45-1.41.65-3.94.02-5.26-.79-1.66-3.97-1.57-5.19-.8-1.61,1.01-2.31,3.04-1.81,4.99.44,1.7,1.65,2.79,3.13,2.9,1.25.09,3.28-.05,3.84-1.83Z"/>
    <path class="st3" d="M229.93,399.09l-4.32.06-.26-9.89c-.04-1.37-1.73-1.76-2.74-1.73-.93.03-3.07.31-3.09,1.67l-.15,9.93-4.21-.02v-14.91s3.78.02,3.78.02c.37,0,.59,1.05.69,1.62,1.95-1.88,4.96-2.52,7.48-1.31,1.73.83,2.75,2.83,2.76,4.68l.07,9.86Z"/>
    <path class="st3" d="M386.92,399.08l-4.34.03-.26-9.84c-.04-1.35-1.74-1.79-2.74-1.76-.92.03-3.04.37-3.06,1.67l-.14,9.94h-4.26s-.01-14.9-.01-14.9l3.78.02c.37.03.62,1.03.68,1.69,1.19-1.31,2.48-1.75,4.25-1.95,3.09-.37,5.92,1.68,5.96,4.9l.14,10.21Z"/>
    <path class="st3" d="M255.52,393.01c.7,3.41,4.54,3.42,8.68,2.02l.7,3.19c-2.86,1.49-6.26,1.56-9.3.48s-4.35-3.62-4.51-6.6c-.26-4.85,3.39-8.48,8.28-8.15,2.23.15,4.18,1.13,5.27,2.67,1.34,1.9,1.65,4.3,1.19,6.37l-10.32.02ZM261.69,390.13c-.29-2.28-1.8-2.84-3.38-2.62-1.16.16-2.51.96-2.7,2.67l6.09-.04Z"/>
    <path class="st3" d="M304.39,384.76c3.63,1.66,5.01,5.33,4.21,8.83s-4.1,5.82-7.98,5.84c-3.59.01-6.76-2.01-7.8-5.06-1.17-3.42-.1-7.03,2.97-9.05,2.45-1.61,5.75-1.86,8.61-.56ZM304.69,391.71c0-2.27-1.84-4.11-4.11-4.11s-4.11,1.84-4.11,4.11,1.84,4.11,4.11,4.11,4.11-1.84,4.11-4.11Z"/>
    <path class="st3" d="M340.88,395.24c.71,1.12.81,2.22.94,3.46-2.54,1.11-5.31,1.03-7.75-.24-2.99-1.55-4.57-4.61-4.08-7.97.73-5.05,6.22-7.84,11.45-5.95.72.56.12,3.2-.83,3.31-2.09-.52-4.44-.66-5.73,1.24-.93,1.37-1.46,3.55.04,5.32,1.12,1.32,3.37,2.13,5.96.82Z"/>
    <path class="st3" d="M289.61,395.33c1.03.74,1.07,2.1,1.18,3.42-1.97.71-4.14.92-6.31.31-3.01-.84-5.07-3.33-5.53-6.19s.75-5.82,3.39-7.56c2.42-1.6,5.35-1.69,8.33-.82.18,1.09-.07,2.57-1,3.44-2.11-.63-4.3-.73-5.76,1.01-1.03,1.22-1.42,3.65-.15,5.3,1.16,1.5,3.33,2.3,5.84,1.09Z"/>
    <path class="st3" d="M277.9,388.05c-1.24-.21-4.23.17-4.25,1.58l-.2,9.41-4.34.08.03-14.92h3.61c.47,0,.93.56,1.16,1.23,1.22-.98,2.42-1.58,4.13-1.46l-.14,4.09Z"/>
    <rect class="st3" x="206.29" y="384.15" width="4.4" height="15.07"/>
    <rect class="st3" x="363.55" y="384.17" width="4.3" height="15.05"/>
    <path class="st3" d="M367.3,378.48c1.04.56.95,1.86.61,2.46-.47.82-1.4,1.08-2.45,1s-1.78-.52-2.1-1.39c-.23-.61,0-1.66.89-2.1.83-.41,2.04-.52,3.05.03Z"/>
    <path class="st3" d="M209.97,378.41c1,.42,1.07,1.57.82,2.27-.3.87-1.17,1.3-2.33,1.28s-1.96-.41-2.25-1.31c-.26-.8-.02-1.88,1.01-2.29.76-.31,1.78-.36,2.74.04Z"/>
    <path class="st4" d="M262.53,355.75c-3.08,4.86-10.24,5.2-13.77.87-3.3-4.05-3.08-9.98-.08-14.03,1.79-2.42,4.61-3.32,7.37-3.12,2.6.19,5.17,1.6,6.66,4.19,2.07,3.58,2.24,8.28-.18,12.1Z"/>
    <path class="st4" d="M227.66,347.68c-2.12.5-4.16.4-6.23.26v-8.07s5.49.13,5.49.13c2.01.05,3.4,1.69,3.58,3.42.2,1.87-.58,3.72-2.85,4.26Z"/>
    <path class="st4" d="M322.32,348.73l-6.33.11v-9s6.11.09,6.11.09c2.51.04,4.15,1.77,4.32,3.98.18,2.42-1.2,4.76-4.1,4.81Z"/>
    <path class="st4" d="M400.99,393.75c-.32,1.96-2.56,2.34-4.02,2.12-1.35-.2-2.61-1.44-2.95-3.09-.4-1.94.17-3.84,1.73-4.77,1.28-.77,4.49-.92,5.19.7.57,1.34.32,3.48.06,5.05Z"/>
    <path class="st4" d="M244.34,394.2c-.54,1.82-3.22,2.02-4.5,1.42-1.44-.67-2.45-2.16-2.41-4.01s.95-3.36,2.53-3.9c1.18-.41,4.01-.46,4.43.98.47,1.6.47,3.8-.04,5.52Z"/>
    <path class="st4" d="M322.09,394.03c-.56,1.78-2.6,1.92-3.84,1.83-1.48-.11-2.69-1.2-3.13-2.9-.51-1.94.2-3.98,1.81-4.99,1.22-.77,4.4-.86,5.19.8.63,1.32.43,3.85-.02,5.26Z"/>
    <path class="st4" d="M261.69,390.13l-6.09.04c.19-1.7,1.54-2.51,2.7-2.67,1.59-.21,3.1.34,3.38,2.62Z"/>
    <circle class="st4" cx="300.58" cy="391.71" r="4.11"/>
    <g>
      <path class="st2" d="M210.88,306.4c.07,8.08-5.68,14.03-13.49,14.62l-11.03.09v-29.19s11.2.17,11.2.17c7.6.72,13.25,6.39,13.32,14.31ZM204.83,306.88c.1-4.62-2.37-8.46-6.63-9.61-1.95-.53-3.99-.47-5.85-.26v19.15s4.54-.04,4.54-.04c4.75-.53,7.83-4.22,7.94-9.25Z"/>
      <path class="st4" d="M204.83,306.88c-.11,5.02-3.19,8.71-7.94,9.25l-4.53.04v-19.15c1.85-.21,3.89-.26,5.84.26,4.26,1.15,6.73,4.98,6.63,9.61Z"/>
    </g>
  </g>
</svg>